<svg width="32" height="32" viewBox="0 0 32 32" fill="none" xmlns="http://www.w3.org/2000/svg">
<path d="M16 32C24.8366 32 32 24.8366 32 16C32 7.16344 24.8366 0 16 0C7.16344 0 0 7.16344 0 16C0 24.8366 7.16344 32 16 32Z" fill="#486DF7"/>
<path d="M23.3869 17.9501C23.0324 18.1719 22.6144 18.1996 22.2963 18.024C21.8963 17.8022 21.6691 17.2754 21.6691 16.5453V14.3641C21.6691 13.3105 21.242 12.5619 20.5421 12.3586C19.3424 12.0166 18.4426 13.4584 18.1063 14.0037L15.9977 17.3771V13.2551C15.9704 12.3031 15.6614 11.7394 15.0706 11.5638C14.6798 11.4529 14.0891 11.4991 13.5165 12.3586L8.78118 19.8447C8.14496 18.6617 7.81776 17.3401 7.81776 16C7.81776 11.4898 11.4896 7.8207 15.9977 7.8207C20.5058 7.8207 24.1776 11.4898 24.1776 16V16.0185V16.037C24.2231 16.915 23.9322 17.6081 23.3869 17.9409V17.9501ZM25.9954 16V15.9538C25.9681 10.4547 21.4964 6 15.9977 6C10.499 6 6 10.4824 6 16C6 21.5176 10.4808 26 15.9977 26C18.5244 26 20.942 25.0481 22.7961 23.329C23.1688 22.9871 23.187 22.414 22.8416 22.0444C22.678 21.8688 22.4508 21.7671 22.2145 21.7579C21.9691 21.7579 21.7418 21.8318 21.5601 21.9982C20.0604 23.403 18.07 24.1793 15.9977 24.1793C13.5801 24.1793 11.4078 23.1257 9.90819 21.4529L14.1799 14.6969V17.8115C14.1799 19.3087 14.7707 19.7893 15.2615 19.9279C15.7523 20.0665 16.5067 19.9741 17.3065 18.7079L19.6514 14.9556C19.7241 14.8355 19.7968 14.7338 19.8605 14.6414V16.536C19.8605 17.9316 20.433 19.0499 21.4237 19.6044C22.3144 20.1035 23.4414 20.0573 24.3503 19.4843C25.4592 18.7911 26.059 17.525 25.9954 15.9908V16Z" fill="white"/>
</svg>
